<?xml version="1.0" encoding="UTF-8"?>
<svg width="2000px" height="900px" viewBox="0 0 2000 900" version="1.1" xmlns="http://www.w3.org/2000/svg" xmlns:xlink="http://www.w3.org/1999/xlink">
    <!-- Generator: Sketch 52.5 (67469) - http://www.bohemiancoding.com/sketch -->
    <title>Background</title>
    <desc>Created with Sketch.</desc>
    <defs>
        <rect id="path-1" x="0" y="0" width="2000" height="900"></rect>
        <linearGradient x1="100%" y1="103.290947%" x2="110.867336%" y2="-2.16510384%" id="linearGradient-3">
            <stop stop-color="#0F00FF" offset="0%"></stop>
            <stop stop-color="#FF2B00" offset="100%"></stop>
            <stop stop-color="#FF0070" offset="100%"></stop>
        </linearGradient>
        <linearGradient x1="100%" y1="100%" x2="0%" y2="0%" id="linearGradient-4">
            <stop stop-color="#0F00FF" offset="0%"></stop>
            <stop stop-color="#FF2B00" offset="100%"></stop>
            <stop stop-color="#FF2B00" offset="100%"></stop>
        </linearGradient>
        <linearGradient x1="110.134443%" y1="100%" x2="0%" y2="-8.40409544%" id="linearGradient-5">
            <stop stop-color="#0F00FF" offset="0%"></stop>
            <stop stop-color="#FF2B00" offset="100%"></stop>
        </linearGradient>
        <linearGradient x1="100%" y1="160.356864%" x2="0%" y2="160.356864%" id="linearGradient-6">
            <stop stop-color="#0F00FF" offset="0%"></stop>
            <stop stop-color="#FF2B00" offset="100%"></stop>
            <stop stop-color="#FF2B00" offset="100%"></stop>
        </linearGradient>
        <linearGradient x1="100%" y1="0%" x2="0%" y2="100%" id="linearGradient-7">
            <stop stop-color="#0F00FF" offset="0%"></stop>
            <stop stop-color="#FF2B00" offset="100%"></stop>
            <stop stop-color="#FF2B00" offset="100%"></stop>
        </linearGradient>
        <linearGradient x1="0%" y1="0%" x2="0%" y2="100%" id="linearGradient-8">
            <stop stop-color="#0F00FF" offset="0%"></stop>
            <stop stop-color="#FF2B00" offset="100%"></stop>
            <stop stop-color="#FF2B00" offset="100%"></stop>
        </linearGradient>
        <linearGradient x1="0%" y1="0%" x2="102.886822%" y2="100%" id="linearGradient-9">
            <stop stop-color="#0F00FF" offset="0%"></stop>
            <stop stop-color="#8F00FF" offset="100%"></stop>
        </linearGradient>
        <linearGradient x1="100%" y1="100%" x2="0%" y2="0%" id="linearGradient-10">
            <stop stop-color="#8F00FF" offset="0%"></stop>
            <stop stop-color="#0F00FF" offset="100%"></stop>
        </linearGradient>
        <linearGradient x1="100%" y1="160.356864%" x2="0%" y2="160.356864%" id="linearGradient-11">
            <stop stop-color="#8F00FF" offset="0%"></stop>
            <stop stop-color="#0F00FF" offset="100%"></stop>
        </linearGradient>
        <linearGradient x1="0%" y1="100%" x2="100%" y2="0%" id="linearGradient-12">
            <stop stop-color="#0F00FF" offset="0%"></stop>
            <stop stop-color="#FF2B00" offset="100%"></stop>
            <stop stop-color="#FF2B00" offset="100%"></stop>
        </linearGradient>
        <linearGradient x1="100%" y1="100%" x2="50%" y2="0%" id="linearGradient-13">
            <stop stop-color="#3607D6" offset="0%"></stop>
            <stop stop-color="#FF0070" offset="100%"></stop>
        </linearGradient>
        <linearGradient x1="0%" y1="0%" x2="97.0652199%" y2="83.3246621%" id="linearGradient-14">
            <stop stop-color="#FF0070" offset="0%"></stop>
            <stop stop-color="#0070FF" offset="100%"></stop>
        </linearGradient>
        <linearGradient x1="1099.00809%" y1="160.356864%" x2="1099.00809%" y2="-20.7841356%" id="linearGradient-15">
            <stop stop-color="#FF0070" offset="0%"></stop>
            <stop stop-color="#FF2B00" offset="100%"></stop>
            <stop stop-color="#FF2B00" offset="100%"></stop>
        </linearGradient>
        <linearGradient x1="-1.61245844%" y1="100%" x2="101.678589%" y2="0%" id="linearGradient-16">
            <stop stop-color="#8F00FF" offset="0%"></stop>
            <stop stop-color="#FF00EF" offset="100%"></stop>
        </linearGradient>
        <linearGradient x1="0%" y1="100%" x2="100%" y2="-1.99420365%" id="linearGradient-17">
            <stop stop-color="#8F00FF" offset="0%"></stop>
            <stop stop-color="#FF00EF" offset="100%"></stop>
        </linearGradient>
        <linearGradient x1="0%" y1="100%" x2="100%" y2="0%" id="linearGradient-18">
            <stop stop-color="#0070FF" offset="0%"></stop>
            <stop stop-color="#FF00EF" offset="100%"></stop>
        </linearGradient>
        <linearGradient x1="0%" y1="100%" x2="100%" y2="0%" id="linearGradient-19">
            <stop stop-color="#00FFF2" offset="0%"></stop>
            <stop stop-color="#FF00EF" offset="100%"></stop>
        </linearGradient>
        <linearGradient x1="1099.00809%" y1="160.356864%" x2="1099.00809%" y2="-20.7841356%" id="linearGradient-20">
            <stop stop-color="#00FFF2" offset="0%"></stop>
            <stop stop-color="#8F00FF" offset="100%"></stop>
        </linearGradient>
        <linearGradient x1="100%" y1="160.356864%" x2="0%" y2="160.356864%" id="linearGradient-21">
            <stop stop-color="#0070FF" offset="0%"></stop>
            <stop stop-color="#8F00FF" offset="100%"></stop>
        </linearGradient>
        <linearGradient x1="102.532592%" y1="0%" x2="0%" y2="100%" id="linearGradient-22">
            <stop stop-color="#0070FF" offset="0%"></stop>
            <stop stop-color="#8F00FF" offset="100%"></stop>
        </linearGradient>
        <linearGradient x1="0%" y1="100%" x2="100%" y2="0%" id="linearGradient-23">
            <stop stop-color="#0070FF" offset="0%"></stop>
            <stop stop-color="#FF2B00" offset="100%"></stop>
            <stop stop-color="#FF2B00" offset="100%"></stop>
        </linearGradient>
        <linearGradient x1="1099.00809%" y1="160.356864%" x2="1099.00809%" y2="-20.7841356%" id="linearGradient-24">
            <stop stop-color="#00FFF2" offset="0%"></stop>
            <stop stop-color="#0070FF" offset="100%"></stop>
        </linearGradient>
        <linearGradient x1="1099.00809%" y1="160.356864%" x2="1099.00809%" y2="-13.454731%" id="linearGradient-25">
            <stop stop-color="#00FFF2" offset="0%"></stop>
            <stop stop-color="#0070FF" offset="100%"></stop>
        </linearGradient>
    </defs>
    <g id="Background" stroke="none" stroke-width="1" fill="none" fill-rule="evenodd">
        <mask id="mask-2" fill="white">
            <use xlink:href="#path-1"></use>
        </mask>
        <g id="Rectangle"></g>
        <rect id="Rectangle" fill="#0F00FF" mask="url(#mask-2)" x="396" y="600" width="200" height="200" rx="25"></rect>
        <rect id="Rectangle" fill="#FFFFFF" mask="url(#mask-2)" x="426" y="630" width="140" height="140"></rect>
        <path d="M546,0 L746,0 L746,185 C746,193.284271 739.284271,200 731,200 L561,200 C552.715729,200 546,193.284271 546,185 L546,0 Z" id="Rectangle" fill="#FF0070" mask="url(#mask-2)"></path>
        <circle id="Oval" fill="#FFFFFF" mask="url(#mask-2)" cx="578" cy="183" r="7"></circle>
        <circle id="Oval" fill="#FFFFFF" mask="url(#mask-2)" cx="714" cy="183" r="7"></circle>
        <path d="M624.5,159 L624.5,159 C627.537566,159 630,161.462434 630,164.5 L630,200 L619,200 L619,164.5 C619,161.462434 621.462434,159 624.5,159 Z" id="Rectangle" fill="#FFFFFF" mask="url(#mask-2)"></path>
        <path d="M646,159 L646,159 C649.313708,159 652,161.686292 652,165 L652,200 L640,200 L640,165 C640,161.686292 642.686292,159 646,159 Z" id="Rectangle" fill="#FFFFFF" mask="url(#mask-2)"></path>
        <path d="M666.5,159 L666.5,159 C669.537566,159 672,161.462434 672,164.5 L672,200 L661,200 L661,164.5 C661,161.462434 663.462434,159 666.5,159 Z" id="Rectangle" fill="#FFFFFF" mask="url(#mask-2)"></path>
        <path d="M1367,918 L1367,612 C1367,605.924868 1371.92487,601 1378,601 L1484,601 C1490.07513,601 1495,605.924868 1495,612 L1495,918 C1495,924.075132 1490.07513,929 1484,929 L1378,929 C1371.92487,929 1367,924.075132 1367,918 Z" id="Path-8" fill="#0070FF" mask="url(#mask-2)"></path>
        <path d="M1422,601 L1440,601 L1440,628 C1440,632.970563 1435.97056,637 1431,637 L1431,637 C1426.02944,637 1422,632.970563 1422,628 L1422,601 Z" id="Rectangle" fill="#FFFFFF" mask="url(#mask-2)"></path>
        <rect id="Rectangle" stroke="#FFFFFF" stroke-width="7" fill="#0070FF" mask="url(#mask-2)" x="1391.5" y="705.5" width="82" height="29" rx="10"></rect>
        <rect id="Rectangle" stroke="#FFFFFF" stroke-width="7" fill="#0070FF" mask="url(#mask-2)" x="1390.5" y="753.5" width="82" height="29" rx="10"></rect>
        <rect id="Rectangle" stroke="#FFFFFF" stroke-width="7" fill="#0070FF" mask="url(#mask-2)" x="1390.5" y="801.5" width="82" height="29" rx="10"></rect>
        <rect id="Rectangle" stroke="#FFFFFF" stroke-width="7" fill="#0070FF" mask="url(#mask-2)" x="1391.5" y="849.5" width="82" height="29" rx="10"></rect>
        <path d="M1350.5,637 L1367,637 L1367,646 L1350.5,646 C1348.01472,646 1346,643.985281 1346,641.5 L1346,641.5 C1346,639.014719 1348.01472,637 1350.5,637 Z" id="Rectangle" fill="#0070FF" mask="url(#mask-2)"></path>
        <path d="M1350.5,658 L1367,658 L1367,667 L1350.5,667 C1348.01472,667 1346,664.985281 1346,662.5 L1346,662.5 C1346,660.014719 1348.01472,658 1350.5,658 Z" id="Rectangle" fill="#0070FF" mask="url(#mask-2)"></path>
        <path d="M1350.5,679 L1367,679 L1367,688 L1350.5,688 C1348.01472,688 1346,685.985281 1346,683.5 L1346,683.5 C1346,681.014719 1348.01472,679 1350.5,679 Z" id="Rectangle" fill="#0070FF" mask="url(#mask-2)"></path>
        <path d="M1350.5,699 L1367,699 L1367,708 L1350.5,708 C1348.01472,708 1346,705.985281 1346,703.5 L1346,703.5 C1346,701.014719 1348.01472,699 1350.5,699 Z" id="Rectangle" fill="#0070FF" mask="url(#mask-2)"></path>
        <path d="M1350.5,720 L1367,720 L1367,729 L1350.5,729 C1348.01472,729 1346,726.985281 1346,724.5 L1346,724.5 C1346,722.014719 1348.01472,720 1350.5,720 Z" id="Rectangle" fill="#0070FF" mask="url(#mask-2)"></path>
        <path d="M1350.5,741 L1367,741 L1367,750 L1350.5,750 C1348.01472,750 1346,747.985281 1346,745.5 L1346,745.5 C1346,743.014719 1348.01472,741 1350.5,741 Z" id="Rectangle" fill="#0070FF" mask="url(#mask-2)"></path>
        <path d="M1350.5,761 L1367,761 L1367,770 L1350.5,770 C1348.01472,770 1346,767.985281 1346,765.5 L1346,765.5 C1346,763.014719 1348.01472,761 1350.5,761 Z" id="Rectangle" fill="#0070FF" mask="url(#mask-2)"></path>
        <path d="M1350.5,782 L1367,782 L1367,791 L1350.5,791 C1348.01472,791 1346,788.985281 1346,786.5 L1346,786.5 C1346,784.014719 1348.01472,782 1350.5,782 Z" id="Rectangle" fill="#0070FF" mask="url(#mask-2)"></path>
        <path d="M1350.5,803 L1367,803 L1367,812 L1350.5,812 C1348.01472,812 1346,809.985281 1346,807.5 L1346,807.5 C1346,805.014719 1348.01472,803 1350.5,803 Z" id="Rectangle" fill="#0070FF" mask="url(#mask-2)"></path>
        <path d="M1350.5,824 L1367,824 L1367,833 L1350.5,833 C1348.01472,833 1346,830.985281 1346,828.5 L1346,828.5 C1346,826.014719 1348.01472,824 1350.5,824 Z" id="Rectangle" fill="#0070FF" mask="url(#mask-2)"></path>
        <path d="M1350.5,844 L1367,844 L1367,853 L1350.5,853 C1348.01472,853 1346,850.985281 1346,848.5 L1346,848.5 C1346,846.014719 1348.01472,844 1350.5,844 Z" id="Rectangle" fill="#0070FF" mask="url(#mask-2)"></path>
        <path d="M1350.5,865 L1367,865 L1367,874 L1350.5,874 C1348.01472,874 1346,871.985281 1346,869.5 L1346,869.5 C1346,867.014719 1348.01472,865 1350.5,865 Z" id="Rectangle" fill="#0070FF" mask="url(#mask-2)"></path>
        <path d="M1350.5,886 L1367,886 L1367,895 L1350.5,895 C1348.01472,895 1346,892.985281 1346,890.5 L1346,890.5 C1346,888.014719 1348.01472,886 1350.5,886 Z" id="Rectangle" fill="#0070FF" mask="url(#mask-2)"></path>
        <path d="M1496,0 L1865,0 L1865,173 C1865,187.911688 1852.91169,200 1838,200 L1523,200 C1508.08831,200 1496,187.911688 1496,173 L1496,0 Z" id="Rectangle" fill="#FF00EF" mask="url(#mask-2)"></path>
        <circle id="Oval" fill="#FFFFFF" mask="url(#mask-2)" cx="1681" cy="15" r="175"></circle>
        <circle id="Oval" fill="#FF00EF" mask="url(#mask-2)" cx="1681" cy="15" r="25"></circle>
        <circle id="Oval" fill="#FFFFFF" mask="url(#mask-2)" cx="1518.5" cy="177.5" r="12.5"></circle>
        <circle id="Oval" fill="#FFFFFF" mask="url(#mask-2)" cx="1843.5" cy="177.5" r="12.5"></circle>
        <path d="M1660.23109,14.3931285 C1629.08032,20.7977095 1604.5589,24 1586.66685,24 C1550.43966,24 1520.12475,9.24894384 1520.12475,14.3931285 C1520.12475,32.0374972 1534.75838,87.7425705 1545.86972,96 C1556.81396,104.133244 1582.70615,98.2538666 1618.48515,73.9939627 C1629.12904,66.7768839 1644.68694,50.1122297 1665.15884,24 L1660.23109,14.3931285 Z" id="Path-9" stroke="#FF00EF" stroke-width="7" mask="url(#mask-2)"></path>
        <path d="M1733.19447,65.2557925 C1702.04369,71.6603735 1677.52228,74.862664 1659.63022,74.862664 C1623.40303,74.862664 1593.08813,60.1116078 1593.08813,65.2557925 C1593.08813,82.9001612 1607.72176,138.605234 1618.8331,146.862664 C1629.77733,154.995908 1655.66952,149.116531 1691.44852,124.856627 C1702.09242,117.639548 1717.65031,100.974894 1738.12221,74.862664 L1733.19447,65.2557925 Z" id="Path-9" stroke="#FF00EF" stroke-width="7" mask="url(#mask-2)" transform="translate(1665.605170, 107.234948) rotate(-50.000000) translate(-1665.605170, -107.234948) "></path>
        <path d="M1818.59559,43.9148966 C1787.44482,50.3194776 1762.9234,53.5217681 1745.03134,53.5217681 C1708.80416,53.5217681 1678.48925,38.770712 1678.48925,43.9148966 C1678.48925,61.5592653 1693.12288,117.264339 1704.23422,125.521768 C1715.17846,133.655013 1741.07065,127.775635 1776.84965,103.515731 C1787.49354,96.298652 1803.05144,79.6339978 1823.52334,53.5217681 L1818.59559,43.9148966 Z" id="Path-9" stroke="#FF00EF" stroke-width="7" mask="url(#mask-2)" transform="translate(1751.006295, 85.894052) rotate(-100.000000) translate(-1751.006295, -85.894052) "></path>
        <path d="M1847.92497,-38.4225268 C1816.7742,-32.0179458 1792.25278,-28.8156553 1774.36073,-28.8156553 C1738.13354,-28.8156553 1707.81863,-43.5667115 1707.81863,-38.4225268 C1707.81863,-20.7781581 1722.45226,34.9269152 1733.5636,43.1843447 C1744.50784,51.3175892 1770.40003,45.4382113 1806.17903,21.1783074 C1816.82292,13.9612286 1832.38082,-2.70342562 1852.85272,-28.8156553 L1847.92497,-38.4225268 Z" id="Path-9" stroke="#FF00EF" stroke-width="7" mask="url(#mask-2)" transform="translate(1780.335675, 3.556629) rotate(-150.000000) translate(-1780.335675, -3.556629) "></path>
        <path d="M1660.19447,-73.7442075 C1629.04369,-67.3396265 1604.52228,-64.137336 1586.63022,-64.137336 C1550.40303,-64.137336 1520.08813,-78.8883922 1520.08813,-73.7442075 C1520.08813,-56.0998388 1534.72176,-0.394765528 1545.8331,7.86266398 C1556.77733,15.9959085 1582.66952,10.1165306 1618.44852,-14.1433733 C1629.09242,-21.3604521 1644.65031,-38.0251063 1665.12221,-64.137336 L1660.19447,-73.7442075 Z" id="Path-9" stroke="#FF00EF" stroke-width="7" mask="url(#mask-2)" transform="translate(1592.605170, -31.765052) rotate(50.000000) translate(-1592.605170, 31.765052) "></path>
        <path d="M832,550 L1010,550 C1029.88225,550 1046,566.117749 1046,586 L1046,906 L796,906 L796,586 C796,566.117749 812.117749,550 832,550 Z" id="Rectangle" fill="#8F00FF" mask="url(#mask-2)"></path>
        <rect id="Rectangle" fill="#8F00FF" mask="url(#mask-2)" x="746" y="600" width="55" height="324"></rect>
        <polyline id="Path-4" stroke="url(#linearGradient-3)" stroke-width="10" stroke-linecap="round" stroke-linejoin="round" mask="url(#mask-2)" points="546 600 546 400 446 300 446 100 546 100"></polyline>
        <polyline id="Path-5" stroke="url(#linearGradient-4)" stroke-width="10" stroke-linecap="round" stroke-linejoin="round" mask="url(#mask-2)" points="496 600 496 400 396 300 396 -5.68434189e-14"></polyline>
        <polyline id="Path-6" stroke="url(#linearGradient-4)" stroke-width="10" stroke-linecap="round" stroke-linejoin="round" mask="url(#mask-2)" points="446 600 446 500 396 450 395.999661 400 346 350 346 100 296 50"></polyline>
        <polyline id="Path-7" stroke="url(#linearGradient-5)" stroke-width="10" stroke-linecap="round" stroke-linejoin="round" mask="url(#mask-2)" points="396 650 346 650 296 600 -1.93267624e-12 603"></polyline>
        <path d="M396,700 L296,700" id="Path-10" stroke="url(#linearGradient-6)" stroke-width="10" stroke-linecap="round" stroke-linejoin="round" mask="url(#mask-2)"></path>
        <polyline id="Path-11" stroke="url(#linearGradient-7)" stroke-width="10" stroke-linecap="round" stroke-linejoin="round" mask="url(#mask-2)" points="396 750 346 750 346 900"></polyline>
        <polyline id="Path-12" stroke="url(#linearGradient-7)" stroke-width="10" stroke-linecap="round" stroke-linejoin="round" mask="url(#mask-2)" points="446 800 446 850 396 900"></polyline>
        <path d="M496,800 L496,900" id="Path-13" stroke="url(#linearGradient-8)" stroke-width="10" stroke-linecap="round" stroke-linejoin="round" mask="url(#mask-2)"></path>
        <polyline id="Path-14" stroke="url(#linearGradient-9)" stroke-width="10" stroke-linecap="round" stroke-linejoin="round" mask="url(#mask-2)" points="546 800 546 850 746 850"></polyline>
        <polyline id="Path-15" stroke="url(#linearGradient-10)" stroke-width="10" stroke-linecap="round" stroke-linejoin="round" mask="url(#mask-2)" points="596 750 646 750 696 800 746 800"></polyline>
        <path d="M596,700 L746,700" id="Path-16" stroke="url(#linearGradient-11)" stroke-width="10" stroke-linecap="round" stroke-linejoin="round" mask="url(#mask-2)"></path>
        <polyline id="Path-17" stroke="url(#linearGradient-12)" stroke-width="10" stroke-linecap="round" stroke-linejoin="round" mask="url(#mask-2)" points="596 650 646 650 696 600 696 400 796 300 1146 300 1196 250 1346 250 1396 200 1396 -5.68434189e-14"></polyline>
        <polyline id="Path-18" stroke="url(#linearGradient-13)" stroke-width="10" stroke-linecap="round" stroke-linejoin="round" mask="url(#mask-2)" points="546 150 496 150 496 250 546 300 596 300 596 550"></polyline>
        <polyline id="Path-19" stroke="url(#linearGradient-14)" stroke-width="10" stroke-linecap="round" stroke-linejoin="round" mask="url(#mask-2)" points="746 150 796 150 846 200 1013 200"></polyline>
        <polyline id="Path-20" stroke="url(#linearGradient-15)" stroke-width="10" stroke-linecap="round" stroke-linejoin="round" mask="url(#mask-2)" points="746 100 896 100 946 50 996 50 1046 1.70530257e-13"></polyline>
        <polyline id="Path-21" stroke="url(#linearGradient-15)" stroke-width="10" stroke-linecap="round" stroke-linejoin="round" mask="url(#mask-2)" points="746 50 846 50 896 0"></polyline>
        <polyline id="Path-22" stroke="url(#linearGradient-16)" stroke-width="10" stroke-linecap="round" stroke-linejoin="round" mask="url(#mask-2)" points="1046 600 1146 600 1247 495 1296 450 1396 350 1396 300 1446 250 1446 100 1496 50"></polyline>
        <polyline id="Path-23" stroke="url(#linearGradient-17)" stroke-width="10" stroke-linecap="round" stroke-linejoin="round" mask="url(#mask-2)" points="1046 650 1246 650 1296 600 1396 500 1396 450 1596 250 1646 250 1646 200"></polyline>
        <polyline id="Path-24" stroke="url(#linearGradient-18)" stroke-width="10" stroke-linecap="round" stroke-linejoin="round" mask="url(#mask-2)" points="1696 200 1696 400 1596 500 1596 650 1546 700 1496 700"></polyline>
        <polyline id="Path-25" stroke="url(#linearGradient-19)" stroke-width="10" stroke-linecap="round" stroke-linejoin="round" mask="url(#mask-2)" points="1696 900 1696 500 1746 450 1896 450 1946 400 1946 4.54747351e-13"></polyline>
        <polyline id="Path-26" stroke="url(#linearGradient-20)" stroke-width="10" stroke-linecap="round" stroke-linejoin="round" mask="url(#mask-2)" points="1046 850 1146 850 1196 900"></polyline>
        <polyline id="Path-27" stroke="url(#linearGradient-20)" stroke-width="10" stroke-linecap="round" stroke-linejoin="round" mask="url(#mask-2)" points="1046 800 1196 800 1246 850 1246 900"></polyline>
        <path d="M1046,750 L1371,750 L1046,750 Z" id="Path-28" stroke="url(#linearGradient-21)" stroke-width="10" stroke-linecap="round" stroke-linejoin="round" mask="url(#mask-2)"></path>
        <polyline id="Path-29" stroke="url(#linearGradient-22)" stroke-width="10" stroke-linecap="round" stroke-linejoin="round" mask="url(#mask-2)" points="1046 700 1246 700 1296 650 1368 650"></polyline>
        <polyline id="Path-30" stroke="url(#linearGradient-23)" stroke-width="10" mask="url(#mask-2)" points="1164 82 1196 50 1296 50 1346 0"></polyline>
        <polyline id="Path-31" stroke="url(#linearGradient-24)" stroke-width="10" stroke-linecap="round" stroke-linejoin="round" mask="url(#mask-2)" points="1496 750 1646 750 1646 900"></polyline>
        <polyline id="Path-32" stroke="url(#linearGradient-25)" stroke-width="10" stroke-linecap="round" stroke-linejoin="round" mask="url(#mask-2)" points="1496 850 1546 850 1546 900"></polyline>
        <path d="M1022,209.5 L1168,209.5" id="Line-6" stroke="#0070FF" stroke-width="10" stroke-linecap="round" mask="url(#mask-2)"></path>
        <path d="M1022,91.5 L1168,91.5" id="Line-6" stroke="#0070FF" stroke-width="10" stroke-linecap="round" mask="url(#mask-2)"></path>
        <path d="M1002,150.5 L1190,150.5" id="Line-6" stroke="#0070FF" stroke-width="10" stroke-linecap="round" mask="url(#mask-2)"></path>
        <path d="M1077,245 C1053.66667,213 1042,181.5 1042,150.5 C1042,119.5 1053.66667,88 1077,56" id="Path-33" stroke="#0070FF" stroke-width="8" mask="url(#mask-2)"></path>
        <path d="M1150,244 C1126.66667,212 1115,180.5 1115,149.5 C1115,118.5 1126.66667,87 1150,55" id="Path-33" stroke="#0070FF" stroke-width="8" mask="url(#mask-2)" transform="translate(1132.500000, 149.500000) scale(-1, 1) translate(-1132.500000, -149.500000) "></path>
        <circle id="Oval" stroke="#0070FF" stroke-width="10" mask="url(#mask-2)" cx="1096" cy="150" r="95"></circle>
        <path d="M1096,242 L1096,56" id="Line" stroke="#0070FF" stroke-width="10" stroke-linecap="square" mask="url(#mask-2)"></path>
        <rect id="Rectangle" fill="#FFFFFF" mask="url(#mask-2)" x="846" y="600" width="150" height="350" rx="17"></rect>
        <text id="damn." mask="url(#mask-2)" font-family="AndaleMono, Andale Mono" font-size="25" font-weight="normal" letter-spacing="-1.22222245" fill="#000000">
            <tspan x="1926.09891" y="496">damn.</tspan>
        </text>
        <text id="Thats-a-wide-ass-scr" mask="url(#mask-2)" font-family="AndaleMono, Andale Mono" font-size="20" font-weight="normal" letter-spacing="-0.9777776" fill="#000000">
            <tspan x="1912.83077" y="527">Thats a </tspan>
            <tspan x="1901.8066" y="549">wide ass </tspan>
            <tspan x="1923.85495" y="571">screen </tspan>
            <tspan x="1912.83077" y="593">you got </tspan>
            <tspan x="1934.87912" y="615">there</tspan>
        </text>
        <text id="And-yes,-there-are-m" mask="url(#mask-2)" font-family="AndaleMono, Andale Mono" font-size="10" font-weight="normal" letter-spacing="-0.4888888" fill="#4C4C4C">
            <tspan x="1914.83077" y="636">And yes, there </tspan>
            <tspan x="1909.31868" y="647">are more easter </tspan>
            <tspan x="1914.83077" y="658">eggs scattered </tspan>
            <tspan x="1953.41539" y="669">around.</tspan>
        </text>
        <rect id="Rectangle" fill="#8F00FF" mask="url(#mask-2)" x="839" y="700" width="164" height="25"></rect>
        <rect id="Rectangle" fill="#8F00FF" mask="url(#mask-2)" x="839" y="800" width="164" height="25"></rect>
        <path d="M745,625 L761,625 C766.522847,625 771,629.477153 771,635 L771,665 C771,670.522847 766.522847,675 761,675 L745,675 L745,625 Z" id="Rectangle" fill="#FFFFFF" mask="url(#mask-2)"></path>
        <path d="M745,725 L761,725 C766.522847,725 771,729.477153 771,735 L771,765 C771,770.522847 766.522847,775 761,775 L745,775 L745,725 Z" id="Rectangle" fill="#FFFFFF" mask="url(#mask-2)"></path>
        <path d="M745,825 L761,825 C766.522847,825 771,829.477153 771,835 L771,865 C771,870.522847 766.522847,875 761,875 L745,875 L745,825 Z" id="Rectangle" fill="#FFFFFF" mask="url(#mask-2)"></path>
    </g>
</svg>